<?xml version="1.0" standalone="no"?>
<!DOCTYPE svg PUBLIC "-//W3C//DTD SVG 20010904//EN"
 "http://www.w3.org/TR/2001/REC-SVG-20010904/DTD/svg10.dtd">
<svg version="1.0" xmlns="http://www.w3.org/2000/svg"
 width="489.000000pt" height="489.000000pt" viewBox="0 0 489.000000 489.000000"
 preserveAspectRatio="xMidYMid meet">
<metadata>
Created by potrace 1.14, written by Peter Selinger 2001-2017
</metadata>
<g transform="translate(0.000000,489.000000) scale(0.100000,-0.100000)"
fill="#000000" stroke="none">
<path d="M3248 4873 c-9 -10 -26 -40 -40 -68 -13 -27 -76 -152 -140 -277 -64
-126 -115 -228 -114 -228 2 0 -3 -34 -10 -75 -12 -68 -22 -140 -29 -215 -7
-71 -18 -146 -21 -151 -2 -3 -6 -34 -10 -70 -3 -35 -8 -67 -10 -71 -3 -4 -8
-50 -13 -102 -9 -95 -11 -98 -119 -318 -257 -522 -323 -659 -348 -724 -14 -38
-36 -96 -49 -129 -12 -33 -33 -85 -45 -115 -12 -30 -34 -84 -47 -120 -47 -121
-86 -210 -92 -210 -3 0 -20 8 -36 19 -45 27 -70 13 -100 -55 -14 -31 -25 -62
-25 -68 0 -6 -13 -45 -29 -86 -28 -72 -62 -166 -114 -314 l-24 -68 -81 128
c-106 168 -103 164 -128 164 -40 0 -51 -34 -69 -210 -4 -36 -8 -67 -10 -70 -2
-3 -6 -48 -9 -100 -4 -52 -11 -122 -16 -155 -5 -33 -11 -87 -15 -120 -3 -33
-8 -67 -10 -75 -4 -17 -13 -97 -20 -189 l-6 -64 -108 -111 c-251 -256 -231
-228 -290 -412 -29 -90 -51 -171 -49 -180 4 -24 31 -38 59 -31 13 4 62 43 109
88 47 45 152 145 234 223 81 77 168 160 193 184 49 47 31 43 283 57 186 10
195 12 288 67 48 29 96 57 107 63 99 53 217 130 226 146 12 24 -11 69 -36 69
-8 0 -15 3 -15 6 0 3 33 40 74 82 124 129 131 139 116 168 -8 13 -25 27 -38
31 -24 6 -24 7 14 26 21 11 57 38 78 61 21 22 89 94 150 160 61 65 125 133
141 150 48 51 279 297 290 310 6 6 41 74 79 151 37 77 105 217 151 310 250
511 229 462 211 490 -19 29 -42 32 -76 8 l-25 -17 16 24 c57 90 111 185 115
204 2 11 9 53 15 91 6 39 21 124 34 190 14 66 27 144 29 173 3 29 8 57 11 61
2 5 7 26 10 46 2 21 7 45 9 54 6 20 14 62 22 121 5 38 3 48 -15 64 -20 18 -22
18 -73 -7 -57 -28 -65 -28 -50 0 5 10 15 43 22 74 14 61 16 54 -42 159 -14 25
-53 99 -88 165 -35 66 -81 152 -102 190 -21 39 -48 90 -60 115 -12 25 -26 47
-30 48 -4 2 -8 8 -8 14 0 15 -131 252 -144 260 -19 13 -42 9 -58 -9z m8 -230
c1 -26 9 -140 20 -263 2 -30 6 -68 9 -85 3 -16 8 -48 11 -70 7 -57 17 -351 11
-345 -2 3 -59 97 -126 208 l-122 204 78 156 c70 142 112 222 117 222 0 0 1
-12 2 -27z m131 -101 c12 -26 37 -74 56 -107 31 -56 113 -211 178 -333 22 -42
24 -52 11 -47 -9 3 -44 13 -77 21 -33 8 -64 16 -70 18 -5 1 -27 6 -47 11 -27
5 -38 13 -39 26 -1 11 -2 27 -3 37 -9 85 -17 180 -21 242 -3 41 -9 99 -14 128
-4 28 -5 52 -2 52 3 0 16 -22 28 -48z m-238 -592 c34 -58 66 -112 72 -120 5
-8 22 -37 39 -65 l30 -50 -23 -9 c-12 -5 -38 -16 -57 -24 -45 -18 -58 -24
-159 -66 -47 -20 -88 -36 -91 -36 -4 0 -3 21 2 48 5 26 11 72 14 102 3 30 9
87 15 125 6 39 12 79 13 90 3 22 19 124 21 140 1 6 3 21 3 34 2 28 8 21 121
-169z m401 26 c118 -31 125 -34 123 -57 -6 -52 -56 -190 -81 -223 -15 -19 -56
-78 -92 -131 -36 -53 -70 -104 -77 -113 -10 -14 -12 42 -13 271 0 158 3 287 8
287 4 0 63 -15 132 -34z m224 -313 c-8 -38 -21 -111 -30 -163 -9 -52 -22 -129
-31 -170 -16 -84 -16 -84 -28 -160 -5 -30 -8 -58 -7 -62 2 -7 1 -7 -260 -98
l-198 -68 25 36 c14 20 25 40 25 43 0 4 25 48 55 98 30 51 55 95 55 99 0 4 13
23 30 42 16 19 29 39 30 43 0 5 26 44 58 87 31 43 82 116 112 161 59 89 119
155 154 169 11 5 21 9 22 9 0 1 -5 -29 -12 -66z m-458 -211 c1 -86 -1 -161 -6
-167 -8 -9 -52 -86 -108 -185 -13 -25 -29 -50 -34 -57 -5 -7 -18 -27 -27 -45
-34 -62 -68 -123 -88 -155 l-19 -32 -12 87 c-7 48 -14 98 -16 112 -3 14 -7 48
-11 75 -3 28 -8 59 -10 70 -2 11 -7 56 -10 99 -3 43 -7 82 -9 85 -2 3 -7 34
-11 67 l-6 61 113 48 c62 26 131 55 153 64 82 35 90 38 95 34 2 -2 5 -75 6
-161z m-442 -187 c3 -27 8 -61 10 -75 12 -71 23 -155 30 -225 9 -99 27 -225
33 -240 5 -14 -5 -15 -73 -11 -44 3 -99 8 -124 11 -25 2 -72 7 -105 10 -33 4
-62 8 -64 11 -3 3 1 15 9 27 7 12 35 67 62 122 27 55 52 107 57 115 16 30 30
58 92 182 34 71 63 127 65 125 1 -1 4 -24 8 -52z m713 -323 c-7 -10 -49 -76
-92 -149 l-78 -132 -230 -173 c-127 -95 -241 -179 -254 -186 -21 -12 -20 -8
12 70 18 46 50 126 70 178 21 52 53 122 73 155 19 33 41 71 48 84 10 19 73 51
124 62 3 1 10 3 15 5 118 43 244 86 257 89 10 2 25 8 35 14 24 13 37 2 20 -17z
m-916 -307 c41 -2 97 -8 124 -11 28 -3 67 -7 88 -8 20 -2 40 -5 43 -8 3 -4
-10 -46 -29 -95 -34 -86 -79 -200 -130 -333 -66 -173 -80 -210 -82 -208 -1 2
-14 68 -29 148 -15 80 -38 204 -52 276 -14 72 -27 151 -30 175 -2 24 -6 49 -9
56 -4 12 14 23 26 17 3 -2 39 -6 80 -9z m776 -217 c-57 -117 -130 -266 -161
-330 l-57 -117 -67 -16 c-37 -8 -78 -18 -91 -21 -14 -3 -28 -7 -33 -10 -5 -3
-20 -8 -35 -10 -24 -5 -61 -14 -200 -49 -29 -7 -53 -11 -53 -8 0 10 73 199 89
231 15 29 150 142 171 142 5 0 10 4 12 8 2 5 30 28 63 53 33 24 64 48 70 52
87 68 391 293 393 291 2 -1 -43 -98 -101 -216z m-960 100 c2 -22 34 -209 59
-338 13 -69 27 -150 30 -180 4 -30 12 -74 19 -97 7 -23 11 -44 8 -47 -3 -2
-28 2 -56 11 -28 8 -58 16 -66 18 -9 2 -36 10 -61 18 -25 8 -71 23 -102 32
-32 10 -58 18 -58 19 0 4 51 141 63 168 8 18 28 69 45 113 57 149 99 260 105
278 7 20 13 22 14 5z m-363 -646 c-4 -15 -33 -112 -65 -217 -32 -104 -75 -244
-95 -310 -21 -66 -44 -139 -52 -163 -15 -43 -54 -85 -186 -202 l-29 -25 13 25
c7 14 21 37 32 52 10 14 31 50 47 80 15 29 46 87 68 128 22 41 52 109 66 150
36 103 132 370 163 453 25 64 51 85 38 29z m221 -47 c50 -14 101 -30 115 -34
14 -5 44 -14 67 -21 l42 -13 -37 -34 c-20 -18 -55 -50 -77 -70 -22 -20 -89
-82 -150 -139 -60 -56 -121 -112 -135 -124 -14 -12 -46 -42 -72 -67 -27 -25
-48 -40 -48 -34 0 6 14 55 30 108 17 54 45 143 62 198 29 96 61 195 79 242 5
13 14 21 21 18 7 -2 54 -16 103 -30z m753 6 c-1 -4 -55 -63 -118 -131 -63 -67
-131 -139 -150 -160 -19 -20 -67 -72 -107 -114 l-72 -77 -19 38 c-38 74 -83
156 -96 175 -12 17 -9 24 33 62 119 111 141 124 271 151 14 3 75 18 135 34
128 34 128 34 123 22z m-1411 -358 c15 -27 42 -70 60 -97 18 -26 33 -56 33
-65 0 -9 -13 -37 -28 -62 -16 -24 -41 -69 -58 -99 -16 -30 -31 -57 -34 -60 -4
-3 -12 -18 -18 -35 -7 -16 -21 -41 -32 -55 l-19 -25 4 25 c2 14 6 58 10 98 3
40 8 78 10 85 2 6 6 39 9 72 3 33 10 86 16 119 5 32 9 61 8 65 -2 19 3 81 7
81 2 0 17 -21 32 -47z m779 14 c6 -12 32 -59 58 -105 47 -84 53 -102 36 -102
-5 0 -36 -13 -69 -29 -58 -28 -94 -36 -196 -46 -27 -3 -63 -7 -80 -10 -16 -2
-52 -7 -79 -11 l-49 -6 51 48 c28 27 82 77 119 111 37 34 95 87 128 117 33 31
62 56 65 56 3 0 10 -10 16 -23z m36 -375 c13 -6 2 -23 -61 -89 l-77 -83 -98 4
c-54 3 -100 7 -102 9 -5 4 18 18 152 92 23 13 59 34 80 48 39 26 74 32 106 19z
m-313 -26 c-2 -1 -53 -31 -112 -65 -99 -56 -112 -61 -162 -60 -62 2 -62 5 5
66 47 42 49 42 200 59 30 3 57 8 59 10 2 2 7 2 9 -1 3 -3 3 -7 1 -9z m-237
-257 c22 -47 60 -160 55 -165 -4 -4 -66 -9 -219 -19 -60 -3 -78 -1 -78 9 0 7
12 46 26 87 27 78 32 96 33 117 1 10 21 12 84 10 l82 -4 17 -35z m318 16 c46
-3 86 -7 88 -9 1 -2 -25 -19 -60 -38 -98 -54 -137 -77 -163 -94 -22 -14 -24
-14 -33 3 -9 17 -52 139 -52 147 0 4 81 1 220 -9z m-635 -107 c-25 -91 -36
-107 -78 -119 -58 -16 -77 -19 -77 -13 0 6 152 154 158 154 2 0 1 -10 -3 -22z
m-305 -377 c-80 -77 -146 -138 -147 -137 -2 1 3 25 10 52 11 41 27 64 83 121
69 69 118 95 189 102 6 0 -55 -62 -135 -138z"/>
</g>
</svg>
